<svg xmlns="http://www.w3.org/2000/svg" viewBox="0 0 220 48" role="img" aria-labelledby="t d"><title id="t">100% European service</title><desc id="d">European Union flag and 100 percent European service statement.</desc><rect width="220" height="48" rx="12" fill="#08152d" stroke="#2e6fe8"/><g transform="translate(13 10)"><rect width="40" height="28" rx="3" fill="#003399"/><g fill="#ffcc00" transform="translate(20 14)"><circle r="1.15" transform="translate(0 -9)"/><circle r="1.15" transform="rotate(30) translate(0 -9)"/><circle r="1.15" transform="rotate(60) translate(0 -9)"/><circle r="1.15" transform="rotate(90) translate(0 -9)"/><circle r="1.15" transform="rotate(120) translate(0 -9)"/><circle r="1.15" transform="rotate(150) translate(0 -9)"/><circle r="1.15" transform="rotate(180) translate(0 -9)"/><circle r="1.15" transform="rotate(210) translate(0 -9)"/><circle r="1.15" transform="rotate(240) translate(0 -9)"/><circle r="1.15" transform="rotate(270) translate(0 -9)"/><circle r="1.15" transform="rotate(300) translate(0 -9)"/><circle r="1.15" transform="rotate(330) translate(0 -9)"/></g></g><text x="65" y="21" fill="#fff" font-family="Arial,Helvetica,sans-serif" font-size="12" font-weight="700">100% EUROPEAN</text><text x="65" y="36" fill="#65e8dc" font-family="Arial,Helvetica,sans-serif" font-size="10" font-weight="700">SERVICE · VALUES · DELIVERY</text></svg>