<svg xmlns="http://www.w3.org/2000/svg" viewBox="0 0 220 48" role="img" aria-labelledby="t d"><title id="t">100% European service</title><desc id="d">European Union flag with twelve upright five-point stars and a European service statement.</desc><rect width="220" height="48" rx="12" fill="#08152d" stroke="#2e6fe8"/><g transform="translate(13 10)"><rect width="40" height="28" rx="3" fill="#003399"/><g fill="#ffcc00"><path id="s" d="M20 3.2l.65 2 2.1.01-1.7 1.23.64 2-1.69-1.24-1.69 1.24.64-2-1.7-1.23 2.1-.01z"/><use href="#s" transform="rotate(30 20 14)"/><use href="#s" transform="rotate(60 20 14)"/><use href="#s" transform="rotate(90 20 14)"/><use href="#s" transform="rotate(120 20 14)"/><use href="#s" transform="rotate(150 20 14)"/><use href="#s" transform="rotate(180 20 14)"/><use href="#s" transform="rotate(210 20 14)"/><use href="#s" transform="rotate(240 20 14)"/><use href="#s" transform="rotate(270 20 14)"/><use href="#s" transform="rotate(300 20 14)"/><use href="#s" transform="rotate(330 20 14)"/></g></g><text x="65" y="21" fill="#fff" font-family="Arial,Helvetica,sans-serif" font-size="12" font-weight="700">100% EUROPEAN</text><text x="65" y="36" fill="#65e8dc" font-family="Arial,Helvetica,sans-serif" font-size="10" font-weight="700">SERVICE · VALUES · DELIVERY</text></svg>