<svg xmlns="http://www.w3.org/2000/svg" viewBox="0 0 96 96" role="img" aria-labelledby="title desc"><title id="title">SundAI</title><desc id="desc">SundAI profile mark.</desc><defs><linearGradient id="bg" x1="0" y1="0" x2="1" y2="1"><stop stop-color="#0B132B"/><stop offset="1" stop-color="#14213D"/></linearGradient><linearGradient id="blue" x1="0" y1="0" x2="1" y2="1"><stop stop-color="#2563EB"/><stop offset="1" stop-color="#0EA5E9"/></linearGradient></defs><circle cx="48" cy="48" r="46" fill="url(#bg)"/><path d="M37.5 28.5c-4.4-2.4-9.3-3.5-14.2-3.5-8.5 0-14.6 4.6-14.6 11.4 0 7.2 5.5 10 14.3 12.6 7.2 2.1 10.8 4.2 10.8 8.6 0 4.7-4.4 7.6-10.7 7.6-5.3 0-10.5-1.8-14.6-5.2l-3 4.1c4.9 4 11 6.2 17.4 6.2 9.8 0 16.7-5.2 16.7-13 0-7.8-5.7-11.2-14.8-13.9-7-2-10.3-3.8-10.3-7.8 0-4 3.8-6.7 9.1-6.7 4.3 0 8.5 1 12.2 3.1Z" fill="#F5F7FA" transform="translate(7 0) scale(.72 1)"/><path d="M49 70 63 30 77 70" fill="none" stroke="url(#blue)" stroke-width="5.8" stroke-linecap="square" stroke-linejoin="miter"/></svg>