<svg xmlns="http://www.w3.org/2000/svg" viewBox="0 0 900 680" role="img" aria-labelledby="t d">
<title id="t">Secure AI platform</title><desc id="d">A layered secure AI platform connecting governance, security, automation and business value.</desc>
<defs>
  <linearGradient id="blue" x1="0" y1="0" x2="1" y2="1"><stop stop-color="#60A5FA"/><stop offset=".48" stop-color="#2563EB"/><stop offset="1" stop-color="#1D4ED8"/></linearGradient>
  <linearGradient id="navy" x1="0" y1="0" x2="1" y2="1"><stop stop-color="#173A72"/><stop offset="1" stop-color="#0B132B"/></linearGradient>
  <linearGradient id="glass" x1="0" y1="0" x2="1" y2="1"><stop stop-color="#FFFFFF" stop-opacity=".96"/><stop offset="1" stop-color="#DBEAFE" stop-opacity=".72"/></linearGradient>
  <filter id="shadow" x="-30%" y="-30%" width="160%" height="180%"><feDropShadow dx="0" dy="24" stdDeviation="24" flood-color="#1D4ED8" flood-opacity=".18"/></filter>
  <filter id="soft" x="-30%" y="-30%" width="160%" height="160%"><feGaussianBlur stdDeviation="14"/></filter>
  <pattern id="grid" width="38" height="38" patternUnits="userSpaceOnUse"><path d="M38 0H0v38" fill="none" stroke="#2563EB" stroke-opacity=".08"/></pattern>
</defs>
<rect width="900" height="680" fill="white" fill-opacity="0"/>
<ellipse cx="560" cy="585" rx="270" ry="42" fill="#2563EB" opacity=".1" filter="url(#soft)"/>
<path d="M140 546 500 350l285 155-360 196Z" fill="url(#grid)" opacity=".7"/>
<g filter="url(#shadow)">
  <path d="M300 470 545 335l198 108-246 136Z" fill="url(#navy)" stroke="#93C5FD" stroke-width="3"/>
  <path d="M300 470v48l197 108 246-136v-47L497 578Z" fill="#0B2149" opacity=".98"/>
  <path d="M328 381 544 263l174 95-216 119Z" fill="url(#blue)" stroke="#BFDBFE" stroke-width="3"/>
  <path d="M328 381v43l174 95 216-119v-42L502 477Z" fill="#17499B"/>
  <path d="M361 300 543 200l147 80-183 101Z" fill="url(#glass)" stroke="#93C5FD" stroke-width="3"/>
  <path d="M361 300v38l146 80 183-100v-38L507 381Z" fill="#DCEBFF" fill-opacity=".82"/>
</g>
<g opacity=".9" stroke="#2563EB" stroke-width="3" fill="none">
  <path d="M404 318 468 353l74-41 62 34"/>
  <path d="M423 299 488 334l70-39"/>
  <circle cx="404" cy="318" r="7" fill="#fff"/><circle cx="468" cy="353" r="7" fill="#fff"/><circle cx="542" cy="312" r="7" fill="#fff"/><circle cx="604" cy="346" r="7" fill="#fff"/><circle cx="423" cy="299" r="7" fill="#fff"/><circle cx="488" cy="334" r="7" fill="#fff"/><circle cx="558" cy="295" r="7" fill="#fff"/>
</g>
<g transform="translate(471 74)" filter="url(#shadow)">
  <path d="M78 0 150 30v63c0 62-30 106-72 132C36 199 6 155 6 93V30Z" fill="url(#glass)" stroke="#93C5FD" stroke-width="4"/>
  <path d="M78 20 130 42v49c0 44-20 76-52 98-32-22-52-54-52-98V42Z" fill="url(#blue)"/>
  <path d="m48 95 21 20 40-48" fill="none" stroke="#DDFBFF" stroke-width="11" stroke-linecap="round" stroke-linejoin="round"/>
</g>
<g fill="#2563EB" opacity=".22"><circle cx="700" cy="160" r="6"/><circle cx="735" cy="205" r="4"/><circle cx="240" cy="420" r="5"/><circle cx="210" cy="462" r="3"/></g>
<g stroke="#60A5FA" stroke-opacity=".35" fill="none"><path d="M690 132h95v95"/><path d="M205 390h-70v95"/><rect x="255" y="218" width="465" height="324" rx="28"/></g>
</svg>