<svg xmlns="http://www.w3.org/2000/svg" viewBox="0 0 900 560" role="img" aria-labelledby="t d"><title id="t">Secure knowledge assistant</title><desc id="d">A colourful abstract knowledge system with documents, an AI assistant and security controls.</desc><defs><linearGradient id="bg" x1="0" x2="1" y1="0" y2="1"><stop stop-color="#dff8ff"/><stop offset=".5" stop-color="#ddf8eb"/><stop offset="1" stop-color="#fff2bd"/></linearGradient><linearGradient id="panel" x1="0" x2="1"><stop stop-color="#09283c"/><stop offset="1" stop-color="#0f5c67"/></linearGradient></defs><rect width="900" height="560" rx="38" fill="url(#bg)"/><circle cx="118" cy="92" r="58" fill="#65b9ff" opacity=".4"/><circle cx="785" cy="460" r="88" fill="#ffcc67" opacity=".45"/><rect x="205" y="86" width="490" height="345" rx="34" fill="url(#panel)"/><rect x="244" y="126" width="194" height="34" rx="17" fill="#75dfbf"/><circle cx="265" cy="143" r="7" fill="#082d41"/><rect x="456" y="126" width="198" height="34" rx="17" fill="#fff" opacity=".12"/><g fill="#fff"><rect x="252" y="199" width="120" height="132" rx="15" opacity=".96"/><rect x="390" y="199" width="120" height="132" rx="15" opacity=".86"/><rect x="528" y="199" width="120" height="132" rx="15" opacity=".76"/></g><g fill="#0f5c67"><rect x="270" y="224" width="82" height="9" rx="5"/><rect x="270" y="247" width="64" height="8" rx="4" opacity=".6"/><rect x="270" y="267" width="74" height="8" rx="4" opacity=".45"/><rect x="408" y="224" width="82" height="9" rx="5"/><rect x="408" y="247" width="64" height="8" rx="4" opacity=".6"/><rect x="408" y="267" width="74" height="8" rx="4" opacity=".45"/><rect x="546" y="224" width="82" height="9" rx="5"/><rect x="546" y="247" width="64" height="8" rx="4" opacity=".6"/><rect x="546" y="267" width="74" height="8" rx="4" opacity=".45"/></g><circle cx="450" cy="382" r="78" fill="#a996ff"/><circle cx="450" cy="382" r="52" fill="#fff"/><path d="M426 386c0-20 12-34 28-34 17 0 29 12 29 29 0 18-11 31-28 31h-29z" fill="#7655d7"/><circle cx="442" cy="379" r="5" fill="#fff"/><circle cx="462" cy="379" r="5" fill="#fff"/><path d="M439 395c8 6 18 6 26 0" fill="none" stroke="#fff" stroke-width="5" stroke-linecap="round"/><g stroke="#0c5164" stroke-width="7" stroke-linecap="round"><path d="M326 364l-89 72"/><path d="M574 364l89 72"/></g><g fill="#fff" stroke="#0c5164" stroke-width="5"><circle cx="226" cy="446" r="24"/><circle cx="674" cy="446" r="24"/></g><path d="M215 446l8 8 15-19" fill="none" stroke="#35aa7d" stroke-width="7" stroke-linecap="round" stroke-linejoin="round"/><path d="M663 446h22M674 435v22" stroke="#ff826c" stroke-width="7" stroke-linecap="round"/></svg>