<svg xmlns="http://www.w3.org/2000/svg" viewBox="0 0 900 560" role="img" aria-labelledby="t d"><title id="t">People working with governed AI</title><desc id="d">A colourful abstract workplace scene with people, a dashboard and connected AI nodes.</desc><defs><linearGradient id="bg" x1="0" x2="1" y1="0" y2="1"><stop stop-color="#fff0c8"/><stop offset=".48" stop-color="#ffd7c8"/><stop offset="1" stop-color="#d8d0ff"/></linearGradient><linearGradient id="scr" x1="0" x2="1"><stop stop-color="#0c334c"/><stop offset="1" stop-color="#166777"/></linearGradient></defs><rect width="900" height="560" rx="38" fill="url(#bg)"/><circle cx="105" cy="95" r="55" fill="#ffcc67" opacity=".72"/><circle cx="795" cy="88" r="68" fill="#a996ff" opacity=".48"/><rect x="242" y="82" width="420" height="255" rx="28" fill="url(#scr)"/><rect x="278" y="122" width="150" height="18" rx="9" fill="#75dfbf"/><rect x="278" y="160" width="298" height="11" rx="6" fill="#fff" opacity=".5"/><rect x="278" y="187" width="235" height="11" rx="6" fill="#fff" opacity=".3"/><circle cx="563" cy="238" r="55" fill="none" stroke="#65b9ff" stroke-width="12"/><circle cx="563" cy="238" r="25" fill="#ffcc67"/><path d="M563 165v-25M636 238h28M563 311v24M490 238h-28" stroke="#75dfbf" stroke-width="8" stroke-linecap="round"/><g fill="#fff"><circle cx="563" cy="140" r="8"/><circle cx="664" cy="238" r="8"/><circle cx="563" cy="335" r="8"/><circle cx="462" cy="238" r="8"/></g><g><circle cx="205" cy="350" r="48" fill="#754fd8"/><path d="M144 523c7-96 35-133 61-133s55 37 62 133" fill="#a996ff"/><circle cx="704" cy="350" r="48" fill="#c64d3b"/><path d="M641 523c8-96 36-133 63-133s55 37 63 133" fill="#ff826c"/><circle cx="448" cy="404" r="42" fill="#0b6274"/><path d="M391 523c7-77 30-106 57-106s50 29 57 106" fill="#65b9ff"/></g><path d="M248 390l128-88M659 389l-73-86M448 363v-55" stroke="#0f455b" stroke-width="7" stroke-linecap="round" opacity=".45"/><g fill="#0f455b"><circle cx="376" cy="302" r="9"/><circle cx="586" cy="303" r="9"/><circle cx="448" cy="308" r="9"/></g></svg>