<svg xmlns="http://www.w3.org/2000/svg" viewBox="0 0 330 92" role="img" aria-labelledby="title desc">
<title id="title">SundAI</title><desc id="desc">SundAI reversed wordmark in white and European blue.</desc>
<defs><linearGradient id="blue" x1="0" y1="0" x2="1" y2="1"><stop stop-color="#2563EB"/><stop offset="1" stop-color="#0EA5E9"/></linearGradient></defs>
<g fill="#F5F7FA"><path d="M46.592 13.364000000000004Q46.123999999999995 14.248000000000005 45.239999999999995 14.248000000000005Q44.564 14.248000000000005 43.498 13.286000000000001Q42.431999999999995 12.323999999999998 40.611999999999995 11.154000000000003Q38.792 9.984000000000009 36.062 8.99600000000001Q33.332 8.00800000000001 29.328 8.00800000000001Q25.323999999999998 8.00800000000001 22.281999999999996 9.152000000000008Q19.24 10.296000000000006 17.186 12.272000000000006Q15.132 14.248000000000005 14.065999999999999 16.848000000000003Q13.0 19.448 13.0 22.308Q13.0 26.052 14.586 28.496000000000002Q16.172 30.940000000000005 18.772 32.656000000000006Q21.372 34.372 24.674 35.542Q27.976 36.712 31.459999999999997 37.856Q34.943999999999996 39.0 38.245999999999995 40.378Q41.547999999999995 41.756 44.147999999999996 43.836Q46.748 45.916000000000004 48.333999999999996 48.958Q49.919999999999995 52.0 49.919999999999995 56.524Q49.919999999999995 61.152 48.333999999999996 65.23400000000001Q46.748 69.316 43.732 72.332Q40.716 75.348 36.348 77.09Q31.979999999999997 78.832 26.363999999999997 78.832Q19.084 78.832 13.832 76.258Q8.58 73.684 4.628 69.212L6.084 66.924Q6.707999999999999 66.144 7.54 66.144Q8.008 66.144 8.736 66.768Q9.464 67.392 10.504 68.30199999999999Q11.543999999999999 69.212 13.0 70.27799999999999Q14.456 71.344 16.38 72.25399999999999Q18.304 73.164 20.799999999999997 73.78800000000001Q23.296 74.412 26.468 74.412Q30.836 74.412 34.268 73.08600000000001Q37.699999999999996 71.76 40.065999999999995 69.47200000000001Q42.431999999999995 67.184 43.67999999999999 64.038Q44.928 60.891999999999996 44.928 57.304Q44.928 53.403999999999996 43.342 50.882Q41.756 48.36 39.156 46.67Q36.556 44.980000000000004 33.254 43.836Q29.951999999999998 42.692 26.467999999999996 41.6Q22.983999999999998 40.508 19.682 39.156000000000006Q16.38 37.804 13.78 35.698Q11.18 33.592 9.594 30.446Q8.008 27.300000000000004 8.008 22.568000000000005Q8.008 18.876000000000005 9.411999999999999 15.444000000000003Q10.815999999999999 12.012 13.52 9.386000000000003Q16.224 6.760000000000005 20.201999999999998 5.174000000000007Q24.18 3.588000000000008 29.276 3.588000000000008Q34.995999999999995 3.588000000000008 39.54599999999999 5.408000000000008Q44.096 7.228000000000009 47.839999999999996 10.972000000000008Z"/><path d="M104.312 26.260000000000005V78.0H101.556Q100.256 78.0 100.048 76.648L99.58 68.952Q95.99199999999999 73.424 91.286 76.128Q86.58 78.832 80.80799999999999 78.832Q76.492 78.832 73.268 77.47999999999999Q70.044 76.128 67.912 73.58Q65.78 71.032 64.688 67.444Q63.596000000000004 63.856 63.596000000000004 59.332V26.260000000000005H68.588V59.332Q68.588 66.612 71.916 70.746Q75.244 74.88 82.056 74.88Q87.1 74.88 91.494 72.306Q95.888 69.732 99.32 65.156V26.260000000000005Z"/><path d="M126.048 35.308Q129.636 30.836000000000006 134.34199999999998 28.132000000000005Q139.048 25.428000000000004 144.82 25.428000000000004Q149.084 25.428000000000004 152.334 26.780000000000005Q155.584 28.132000000000005 157.716 30.680000000000003Q159.84799999999998 33.228 160.94 36.816Q162.03199999999998 40.404 162.03199999999998 44.928000000000004V78.0H157.04V44.928000000000004Q157.04 37.648 153.712 33.514Q150.384 29.380000000000003 143.572 29.380000000000003Q138.528 29.380000000000003 134.13400000000001 31.954Q129.74 34.528 126.30799999999999 39.104V78.0H121.316V26.260000000000005H124.072Q125.372 26.260000000000005 125.58 27.560000000000002Z"/><path d="M213.824 37.388000000000005Q210.86 32.916000000000004 207.246 31.096000000000004Q203.632 29.276000000000003 199.004 29.276000000000003Q194.428 29.276000000000003 190.99599999999998 30.94Q187.564 32.604 185.25 35.646Q182.936 38.688 181.76600000000002 42.926Q180.596 47.164 180.596 52.260000000000005Q180.596 63.804 184.834 69.238Q189.072 74.672 197.07999999999998 74.672Q202.176 74.672 206.38799999999998 72.02Q210.6 69.368 213.824 64.584ZM218.764 2.3400000000000034V78.0H216.06Q214.708 78.0 214.5 76.648L213.98 68.484Q210.548 73.164 205.97199999999998 75.92Q201.396 78.676 195.676 78.676Q186.108 78.676 180.804 72.072Q175.5 65.468 175.5 52.260000000000005Q175.5 46.592 176.982 41.678Q178.464 36.764 181.324 33.150000000000006Q184.184 29.536 188.37 27.456000000000003Q192.55599999999998 25.376000000000005 198.016 25.376000000000005Q203.268 25.376000000000005 207.11599999999999 27.300000000000004Q210.964 29.224000000000004 213.824 33.02V2.3400000000000034Z"/></g>
<path d="M238 78 L269 14 L300 78" fill="none" stroke="url(#blue)" stroke-width="9.5" stroke-linecap="square" stroke-linejoin="miter"/>
<rect x="312" y="15" width="8.5" height="63" rx="1.5" fill="url(#blue)"/>
</svg>