<svg xmlns="http://www.w3.org/2000/svg" viewBox="0 0 330 92" role="img" aria-labelledby="title desc">
<title id="title">SundAI</title><desc id="desc">SundAI wordmark in deep navy and European blue.</desc>
<defs><linearGradient id="blue" x1="0" y1="0" x2="1" y2="1"><stop stop-color="#2563EB"/><stop offset="1" stop-color="#0EA5E9"/></linearGradient></defs>
<g fill="#0B132B"><path d="M 49.92 3.588 Q 47.476 1.976 44.954 1.17 Q 42.432 0.364 39.52 0.364 Q 34.06 0.364 30.394 3.302 Q 26.728 6.24 26.728 10.92 Q 26.728 14.404 28.34 16.692 Q 29.952 18.98 32.5 20.592 Q 35.048 22.204 38.168 23.452 Q 41.288 24.7 44.2 26.104 Q 47.112 27.508 49.66 29.354 Q 52.208 31.2 53.82 33.904 Q 55.432 36.608 55.432 40.768 Q 55.432 45.084 53.82 48.62 Q 52.208 52.156 49.322 54.678 Q 46.436 57.2 42.458 58.578 Q 38.48 59.956 33.696 59.956 Q 27.508 59.956 22.958 57.85 Q 18.408 55.744 14.456 51.948 L 17.576 47.164 Q 18.096 46.54 18.824 46.54 Q 19.448 46.54 20.436 47.294 Q 21.424 48.048 23.01 48.984 Q 24.596 49.92 26.91 50.648 Q 29.224 51.376 32.5 51.376 Q 35.412 51.376 37.7 50.492 Q 39.988 49.608 41.548 48.048 Q 43.108 46.488 43.94 44.356 Q 44.772 42.224 44.772 39.624 Q 44.772 35.88 43.16 33.488 Q 41.548 31.096 39 29.432 Q 36.452 27.768 33.332 26.546 Q 30.212 25.324 27.3 23.946 Q 24.388 22.568 21.84 20.722 Q 19.292 18.876 17.68 16.068 Q 16.068 13.26 16.068 8.84 Q 16.068 5.356 17.524 2.184 Q 18.98 -0.988 21.606 -3.354 Q 24.232 -5.72 28.028 -7.124 Q 31.824 -8.528 36.504 -8.528 Q 41.756 -8.528 46.046 -6.838 Q 50.336 -5.148 53.612 -1.976 Z" transform="translate(0 18) scale(.78)"/><path d="M 96.46 26.26 L 96.46 59.28 L 90.532 59.28 Q 88.452 59.28 87.62 57.304 L 86.996 54.08 Q 84.084 57.044 80.496 58.682 Q 76.908 60.32 72.28 60.32 Q 68.744 60.32 66.04 59.15 Q 63.336 57.98 61.516 55.822 Q 59.696 53.664 58.786 50.622 Q 57.876 47.58 57.876 43.888 L 57.876 26.26 L 66.404 26.26 L 66.404 43.888 Q 66.404 48.152 68.38 50.466 Q 70.356 52.78 74.412 52.78 Q 77.376 52.78 79.976 51.402 Q 82.576 50.024 84.916 47.58 L 84.916 26.26 Z" transform="translate(16 18) scale(.78)"/><path d="M 104.208 59.28 L 104.208 26.26 L 110.136 26.26 Q 112.216 26.26 113.048 28.236 L 113.672 31.46 Q 116.584 28.496 120.172 26.858 Q 123.76 25.22 128.388 25.22 Q 131.924 25.22 134.628 26.39 Q 137.332 27.56 139.152 29.718 Q 140.972 31.876 141.882 34.918 Q 142.792 37.96 142.792 41.652 L 142.792 59.28 L 134.264 59.28 L 134.264 41.652 Q 134.264 37.388 132.288 35.074 Q 130.312 32.76 126.256 32.76 Q 123.292 32.76 120.692 34.138 Q 118.092 35.516 115.752 37.96 L 115.752 59.28 Z" transform="translate(28 18) scale(.78)"/><path d="M 188.578 8.32 L 188.578 59.28 L 183.326 59.28 Q 181.506 59.28 180.674 57.512 L 179.946 54.34 Q 177.346 57.2 173.888 58.76 Q 170.43 60.32 165.724 60.32 Q 161.928 60.32 158.782 58.734 Q 155.636 57.148 153.374 54.158 Q 151.112 51.168 149.89 46.852 Q 148.668 42.536 148.668 37.076 Q 148.668 32.188 150.046 27.976 Q 151.424 23.764 153.972 20.67 Q 156.52 17.576 160.082 15.86 Q 163.644 14.144 168.064 14.144 Q 171.86 14.144 174.486 15.34 Q 177.112 16.536 179.27 18.616 L 179.27 8.32 Z M 179.27 25.324 Q 177.346 22.984 175.136 22.048 Q 172.926 21.112 170.352 21.112 Q 167.804 21.112 165.776 22.074 Q 163.748 23.036 162.344 25.012 Q 160.94 26.988 160.186 30.004 Q 159.432 33.02 159.432 37.076 Q 159.432 41.184 160.082 44.018 Q 160.732 46.852 161.98 48.646 Q 163.228 50.44 165.048 51.246 Q 166.868 52.052 169.13 52.052 Q 172.77 52.052 175.136 50.544 Q 177.502 49.036 179.27 46.28 Z" transform="translate(36 10) scale(.78)"/></g>
<path d="M238 78 L269 14 L300 78" fill="none" stroke="url(#blue)" stroke-width="9.5" stroke-linecap="square" stroke-linejoin="miter"/>
<rect x="312" y="15" width="8.5" height="63" rx="1.5" fill="url(#blue)"/>
</svg>