<svg xmlns="http://www.w3.org/2000/svg" viewBox="0 0 300 70" role="img" aria-labelledby="title desc"><title id="title">SundAI</title><desc id="desc">SundAI network control mark and wordmark</desc><defs><linearGradient id="g" x1="0" y1="0" x2="1" y2="1"><stop stop-color="#1f6bff"/><stop offset=".38" stop-color="#00e7d2"/><stop offset=".72" stop-color="#8b5cff"/><stop offset="1" stop-color="#ff9f1c"/></linearGradient><linearGradient id="w" x1="0" y1="0" x2="1" y2="0"><stop stop-color="#2f7cff"/><stop offset=".55" stop-color="#12d8ff"/><stop offset="1" stop-color="#8c5cff"/></linearGradient><filter id="glow" x="-50%" y="-50%" width="200%" height="200%"><feGaussianBlur stdDeviation="2.2" result="b"/><feMerge><feMergeNode in="b"/><feMergeNode in="SourceGraphic"/></feMerge></filter></defs><g transform="translate(5 4)" fill="none" stroke="url(#g)" stroke-width="3.4" stroke-linecap="round" stroke-linejoin="round" filter="url(#glow)"><path d="M31 1 58 17v31L31 64 4 48V17Z"/><circle cx="31" cy="32" r="9"/><path d="M31 8v15M31 41v15M7 22l15 8M40 35l15 8M8 46l15-8M40 29l15-8"/><circle cx="31" cy="8" r="3.2" fill="#00e7d2" stroke="none"/><circle cx="31" cy="56" r="3.2" fill="#2f7cff" stroke="none"/><circle cx="7" cy="22" r="3.2" fill="#2f7cff" stroke="none"/><circle cx="55" cy="43" r="3.2" fill="#8b5cff" stroke="none"/><circle cx="8" cy="46" r="3.2" fill="#1f6bff" stroke="none"/><circle cx="55" cy="21" r="3.2" fill="#8b5cff" stroke="none"/><circle cx="31" cy="32" r="3.2" fill="#ff9f1c" stroke="none"/></g><text x="78" y="48" fill="#f7fbff" font-family="Inter,Arial,sans-serif" font-size="43" font-weight="650" letter-spacing="-1.6">Sund</text><text x="181" y="48" fill="url(#w)" font-family="Inter,Arial,sans-serif" font-size="43" font-weight="720" letter-spacing="-1.6">AI</text></svg>