<svg xmlns="http://www.w3.org/2000/svg" viewBox="0 0 1120 120" role="img" aria-labelledby="t d"><title id="t">SundAI technology ecosystem</title><desc id="d">OpenAI, Microsoft Azure, Google Gemini, GitHub, Shopify and Amazon Web Services.</desc><rect width="1120" height="120" rx="16" fill="#071226" stroke="#254f9d"/><g font-family="Arial,Helvetica,sans-serif" font-weight="700" text-anchor="middle"><g transform="translate(95 60)"><circle cx="-43" cy="0" r="17" fill="none" stroke="#f4f7ff" stroke-width="3"/><text x="15" y="7" fill="#f4f7ff" font-size="22">OpenAI</text></g><g transform="translate(290 60)"><rect x="-68" y="-15" width="14" height="14" fill="#49a6ff"/><rect x="-50" y="-15" width="14" height="14" fill="#18d5c2"/><rect x="-68" y="3" width="14" height="14" fill="#7b5cff"/><rect x="-50" y="3" width="14" height="14" fill="#ff9d19"/><text x="20" y="7" fill="#f4f7ff" font-size="20">Microsoft Azure</text></g><g transform="translate(500 60)"><path d="M-52 0c12-3 19-10 22-22 3 12 10 19 22 22-12 3-19 10-22 22-3-12-10-19-22-22Z" fill="#65e8dc"/><text x="30" y="7" fill="#f4f7ff" font-size="20">Google Gemini</text></g><g transform="translate(700 60)"><circle cx="-42" cy="0" r="18" fill="#f4f7ff"/><circle cx="-42" cy="-1" r="11" fill="#071226"/><text x="22" y="7" fill="#f4f7ff" font-size="22">GitHub</text></g><g transform="translate(880 60)"><path d="M-58-18h29l4 34h-37Z" fill="#65e8dc"/><text x="25" y="7" fill="#f4f7ff" font-size="22">Shopify</text></g><g transform="translate(1030 60)"><text x="0" y="2" fill="#f4f7ff" font-size="19">AWS</text><path d="M-28 15c20 10 41 10 62 0" fill="none" stroke="#ff9d19" stroke-width="4" stroke-linecap="round"/></g></g></svg>