<svg xmlns="http://www.w3.org/2000/svg" viewBox="0 0 1120 150" role="img" aria-labelledby="t d"><title id="t">Technology ecosystem</title><desc id="d">Platforms SundAI works with: OpenAI, Microsoft Azure, Google Gemini, GitHub, Shopify and AWS.</desc><defs><linearGradient id="b" x1="0" y1="0" x2="1120" y2="150"><stop stop-color="#091a38"/><stop offset="1" stop-color="#061126"/></linearGradient><linearGradient id="a" x1="0" y1="0" x2="1" y2="1"><stop stop-color="#18d8cb"/><stop offset=".5" stop-color="#2f83ff"/><stop offset="1" stop-color="#8f5cff"/></linearGradient></defs><rect x="1" y="1" width="1118" height="148" rx="18" fill="url(#b)" stroke="#254f9d"/><text x="34" y="38" fill="#65e8dc" font-family="Arial,Helvetica,sans-serif" font-size="14" font-weight="700" letter-spacing="2">PLATFORMS WE WORK WITH</text><g font-family="Arial,Helvetica,sans-serif" font-weight="700" fill="#f4f7ff"><g transform="translate(35 62)"><rect width="158" height="58" rx="12" fill="#0b1c3d" stroke="#244b91"/><circle cx="28" cy="29" r="12" fill="none" stroke="#f4f7ff" stroke-width="2.5"/><text x="51" y="36" font-size="20">OpenAI</text></g><g transform="translate(208 62)"><rect width="182" height="58" rx="12" fill="#0b1c3d" stroke="#244b91"/><rect x="18" y="18" width="10" height="10" fill="#2f83ff"/><rect x="31" y="18" width="10" height="10" fill="#18d8cb"/><rect x="18" y="31" width="10" height="10" fill="#8f5cff"/><rect x="31" y="31" width="10" height="10" fill="#ff9d19"/><text x="52" y="36" font-size="18">Microsoft Azure</text></g><g transform="translate(405 62)"><rect width="178" height="58" rx="12" fill="#0b1c3d" stroke="#244b91"/><path d="M22 29c8-2 12-7 14-15 2 8 7 13 15 15-8 2-13 7-15 15-2-8-6-13-14-15Z" fill="url(#a)"/><text x="51" y="36" font-size="18">Google Gemini</text></g><g transform="translate(598 62)"><rect width="143" height="58" rx="12" fill="#0b1c3d" stroke="#244b91"/><circle cx="29" cy="29" r="13" fill="#f4f7ff"/><circle cx="29" cy="28" r="8" fill="#0b1c3d"/><text x="51" y="36" font-size="20">GitHub</text></g><g transform="translate(756 62)"><rect width="145" height="58" rx="12" fill="#0b1c3d" stroke="#244b91"/><path d="M18 17h24l-3 26H21Z" fill="#65e8dc"/><text x="51" y="36" font-size="20">Shopify</text></g><g transform="translate(916 62)"><rect width="169" height="58" rx="12" fill="#0b1c3d" stroke="#244b91"/><text x="26" y="34" font-size="21">AWS</text><path d="M20 42c25 10 50 10 74 0" fill="none" stroke="#ff9d19" stroke-width="3" stroke-linecap="round"/><text x="103" y="35" fill="#9faac2" font-size="13">cloud</text></g></g></svg>