<svg xmlns="http://www.w3.org/2000/svg" viewBox="0 0 900 560" role="img" aria-labelledby="t d"><title id="t">Secure AI adoption illustration</title><desc id="d">Nordic abstract illustration of a human-guided AI workflow moving from idea to value.</desc><defs><linearGradient id="bg" x1="0" y1="0" x2="1" y2="1"><stop stop-color="#12324d"/><stop offset="1" stop-color="#356b86"/></linearGradient><linearGradient id="flow" x1="0" y1="0" x2="1" y2="0"><stop stop-color="#5cb8ff"/><stop offset=".5" stop-color="#74d7a5"/><stop offset="1" stop-color="#ffd166"/></linearGradient></defs><rect width="900" height="560" rx="36" fill="url(#bg)"/><path d="M-40 470C170 310 280 610 520 410S760 260 950 320" fill="none" stroke="#fff" stroke-opacity=".08" stroke-width="100"/><g transform="translate(110 90)"><rect width="680" height="380" rx="30" fill="#fff" opacity=".07" stroke="#fff" stroke-opacity=".18"/><path d="M112 192h420" stroke="url(#flow)" stroke-width="18" stroke-linecap="round"/><g fill="#fff"><circle cx="112" cy="192" r="42" opacity=".95"/><circle cx="322" cy="192" r="42" opacity=".95"/><circle cx="532" cy="192" r="42" opacity=".95"/></g><g fill="#0b2940"><path d="M96 192h32M112 176v32" stroke="#0b2940" stroke-width="9" stroke-linecap="round"/><path d="M301 193l15 15 29-35" fill="none" stroke="#0b2940" stroke-width="10" stroke-linecap="round" stroke-linejoin="round"/><path d="M512 211v-35h40v35M520 176v-16h24v16" fill="none" stroke="#0b2940" stroke-width="8" stroke-linecap="round" stroke-linejoin="round"/></g><g fill="#fff" opacity=".78" font-family="Arial,sans-serif" font-size="24" font-weight="700"><text x="72" y="275">USE CASE</text><text x="276" y="275">CONTROL</text><text x="490" y="275">VALUE</text></g><rect x="92" y="310" width="500" height="12" rx="6" fill="#fff" opacity=".14"/><rect x="92" y="310" width="355" height="12" rx="6" fill="#74d7a5"/></g></svg>