<svg xmlns="http://www.w3.org/2000/svg" viewBox="0 0 900 640" role="img" aria-labelledby="t d"><title id="t">AI governance workshop illustration</title><desc id="d">A Nordic-style meeting room with people reviewing an AI governance dashboard.</desc><defs><linearGradient id="bg" x1="0" y1="0" x2="1" y2="1"><stop stop-color="#0a1c2d"/><stop offset="1" stop-color="#16475b"/></linearGradient><linearGradient id="screen" x1="0" y1="0" x2="1" y2="1"><stop stop-color="#e9f8f4"/><stop offset="1" stop-color="#d8eaff"/></linearGradient></defs><rect width="900" height="640" fill="url(#bg)"/><circle cx="760" cy="90" r="170" fill="#5cb8ff" opacity=".12"/><circle cx="90" cy="570" r="210" fill="#74d7a5" opacity=".13"/><rect x="88" y="80" width="724" height="410" rx="30" fill="#fff" opacity=".08" stroke="#fff" stroke-opacity=".2"/><rect x="155" y="126" width="590" height="270" rx="20" fill="url(#screen)"/><rect x="190" y="164" width="180" height="18" rx="9" fill="#0a1c2d" opacity=".82"/><rect x="190" y="205" width="480" height="10" rx="5" fill="#6f8592" opacity=".32"/><rect x="190" y="229" width="410" height="10" rx="5" fill="#6f8592" opacity=".22"/><rect x="190" y="270" width="132" height="78" rx="15" fill="#74d7a5"/><rect x="338" y="270" width="132" height="78" rx="15" fill="#5cb8ff"/><rect x="486" y="270" width="132" height="78" rx="15" fill="#ff8066"/><path d="M218 316l24-26 20 15 30-34" fill="none" stroke="#0a1c2d" stroke-width="7" stroke-linecap="round" stroke-linejoin="round"/><path d="M365 317h78M365 298h48" stroke="#0a1c2d" stroke-width="8" stroke-linecap="round"/><path d="M521 310l18 18 43-48" fill="none" stroke="#fff" stroke-width="9" stroke-linecap="round" stroke-linejoin="round"/><rect x="290" y="420" width="320" height="35" rx="17.5" fill="#07131f" opacity=".6"/><rect x="250" y="486" width="400" height="34" rx="17" fill="#e9c98e"/><path d="M290 520l-32 94M610 520l32 94" stroke="#d6b77f" stroke-width="22" stroke-linecap="round"/><circle cx="210" cy="462" r="42" fill="#ffd7bd"/><path d="M166 458c8-50 80-60 93-8-20-16-46-18-72-4z" fill="#273b4a"/><rect x="165" y="498" width="92" height="116" rx="38" fill="#5cb8ff"/><path d="M251 527l84-38" stroke="#ffd7bd" stroke-width="22" stroke-linecap="round"/><circle cx="690" cy="462" r="42" fill="#ad744f"/><path d="M646 450c16-45 83-45 91 5-22-12-49-12-75 2z" fill="#132b39"/><rect x="643" y="498" width="94" height="116" rx="38" fill="#74d7a5"/><path d="M650 529l-86-38" stroke="#ad744f" stroke-width="22" stroke-linecap="round"/><circle cx="450" cy="472" r="38" fill="#e8b18e"/><path d="M413 464c6-43 67-56 77-8-18-12-39-14-61-5z" fill="#c17a52"/><rect x="407" y="505" width="86" height="109" rx="35" fill="#ff8066"/><circle cx="776" cy="552" r="16" fill="#ffd166"/><circle cx="120" cy="128" r="12" fill="#74d7a5"/></svg>