<svg xmlns="http://www.w3.org/2000/svg" viewBox="0 0 900 560" role="img" aria-labelledby="t d"><title id="t">AI governance illustration</title><desc id="d">Nordic abstract illustration of governance layers, controls and accountability.</desc><defs><linearGradient id="bg" x1="0" y1="0" x2="1" y2="1"><stop stop-color="#0b2940"/><stop offset="1" stop-color="#164f62"/></linearGradient><linearGradient id="g" x1="0" y1="0" x2="1" y2="1"><stop stop-color="#74d7a5"/><stop offset="1" stop-color="#5cb8ff"/></linearGradient></defs><rect width="900" height="560" rx="36" fill="url(#bg)"/><circle cx="720" cy="92" r="160" fill="#74d7a5" opacity=".09"/><circle cx="140" cy="500" r="220" fill="#5cb8ff" opacity=".08"/><g transform="translate(135 100)"><rect x="0" y="0" width="630" height="360" rx="28" fill="#fff" opacity=".07" stroke="#fff" stroke-opacity=".18"/><rect x="60" y="54" width="510" height="58" rx="16" fill="#fff" opacity=".1"/><rect x="60" y="138" width="230" height="150" rx="22" fill="#fff" opacity=".08"/><rect x="316" y="138" width="254" height="150" rx="22" fill="#fff" opacity=".08"/><circle cx="175" cy="213" r="44" fill="url(#g)"/><path d="M155 213l14 14 28-34" fill="none" stroke="#0b2940" stroke-width="12" stroke-linecap="round" stroke-linejoin="round"/><g fill="#fff" opacity=".82"><rect x="346" y="169" width="160" height="12" rx="6"/><rect x="346" y="198" width="118" height="10" rx="5" opacity=".58"/><rect x="346" y="225" width="184" height="10" rx="5" opacity=".58"/></g><g fill="#74d7a5"><circle cx="92" cy="84" r="8"/><circle cx="124" cy="84" r="8"/><circle cx="156" cy="84" r="8"/></g><path d="M60 320h510" stroke="#fff" stroke-opacity=".16"/><circle cx="96" cy="334" r="9" fill="#ffd166"/><rect x="120" y="328" width="150" height="12" rx="6" fill="#fff" opacity=".5"/></g></svg>