<svg xmlns="http://www.w3.org/2000/svg" viewBox="0 0 900 560" role="img" aria-labelledby="t d"><title id="t">AI security assessment illustration</title><desc id="d">Nordic abstract illustration of a shield, data paths and AI threat controls.</desc><defs><linearGradient id="bg" x1="0" y1="0" x2="1" y2="1"><stop stop-color="#211f42"/><stop offset="1" stop-color="#4c315e"/></linearGradient><linearGradient id="shield" x1="0" y1="0" x2="1" y2="1"><stop stop-color="#ff8066"/><stop offset="1" stop-color="#9b8cff"/></linearGradient></defs><rect width="900" height="560" rx="36" fill="url(#bg)"/><circle cx="120" cy="80" r="180" fill="#ff8066" opacity=".08"/><circle cx="820" cy="520" r="220" fill="#9b8cff" opacity=".09"/><g transform="translate(135 70)"><rect width="630" height="420" rx="30" fill="#fff" opacity=".06" stroke="#fff" stroke-opacity=".16"/><g stroke="#fff" stroke-opacity=".18" stroke-width="3"><path d="M74 100h140M416 100h140M74 320h140M416 320h140"/><path d="M214 100l78 72M416 100l-78 72M214 320l78-72M416 320l-78-72"/></g><g fill="#fff"><circle cx="74" cy="100" r="15" opacity=".8"/><circle cx="556" cy="100" r="15" opacity=".8"/><circle cx="74" cy="320" r="15" opacity=".8"/><circle cx="556" cy="320" r="15" opacity=".8"/></g><path d="M315 90c72 30 126 18 126 18v104c0 92-63 143-126 171-63-28-126-79-126-171V108s54 12 126-18z" fill="url(#shield)"/><path d="M270 220l30 30 64-78" fill="none" stroke="#fff" stroke-width="18" stroke-linecap="round" stroke-linejoin="round"/><g fill="#fff" opacity=".72" font-family="Arial,sans-serif" font-size="20" font-weight="700"><text x="54" y="68">DATA</text><text x="520" y="68">ACCESS</text><text x="42" y="365">MODEL</text><text x="500" y="365">VENDOR</text></g></g></svg>