<svg xmlns="http://www.w3.org/2000/svg" viewBox="0 0 1200 760" role="img" aria-labelledby="t d"><title id="t">SundAI network visual</title><desc id="d">A glowing Nordic teal network converging on a central AI control hub.</desc><defs><radialGradient id="bg"><stop stop-color="#0d4a50"/><stop offset=".42" stop-color="#08343a"/><stop offset="1" stop-color="#041b22"/></radialGradient><radialGradient id="core"><stop stop-color="#bfffee"/><stop offset=".32" stop-color="#35d5c3"/><stop offset=".72" stop-color="#0d6e75"/><stop offset="1" stop-color="#062a31"/></radialGradient><filter id="glow"><feGaussianBlur stdDeviation="5" result="b"/><feMerge><feMergeNode in="b"/><feMergeNode in="SourceGraphic"/></feMerge></filter></defs><rect width="1200" height="760" fill="url(#bg)"/><g stroke="#3ff0d5" stroke-opacity=".28" fill="none"><path d="M90 120L260 210L410 135L590 270L760 155L930 235L1120 115"/><path d="M60 360L250 290L430 365L600 250L790 340L980 285L1160 380"/><path d="M110 650L280 530L470 600L610 420L820 560L1060 480"/><path d="M185 70L220 630M390 40L470 690M760 30L700 710M980 50L890 680"/></g><g fill="#7dfbe6" opacity=".9" filter="url(#glow)"><circle cx="90" cy="120" r="4"/><circle cx="260" cy="210" r="5"/><circle cx="410" cy="135" r="4"/><circle cx="590" cy="270" r="6"/><circle cx="760" cy="155" r="4"/><circle cx="930" cy="235" r="5"/><circle cx="1120" cy="115" r="4"/><circle cx="60" cy="360" r="5"/><circle cx="250" cy="290" r="4"/><circle cx="430" cy="365" r="6"/><circle cx="790" cy="340" r="5"/><circle cx="980" cy="285" r="4"/><circle cx="1160" cy="380" r="5"/><circle cx="110" cy="650" r="4"/><circle cx="280" cy="530" r="5"/><circle cx="470" cy="600" r="4"/><circle cx="820" cy="560" r="5"/><circle cx="1060" cy="480" r="4"/></g><g transform="translate(600 380)"><circle r="170" fill="none" stroke="#6ffff0" stroke-opacity=".22" stroke-width="2"/><circle r="125" fill="none" stroke="#6ffff0" stroke-opacity=".38" stroke-width="3"/><circle r="88" fill="url(#core)" stroke="#bfffee" stroke-opacity=".8" stroke-width="4" filter="url(#glow)"/><circle r="58" fill="#092c33" stroke="#8afbe9" stroke-width="2"/><text x="0" y="12" text-anchor="middle" fill="#d8fff8" font-size="54" font-family="Arial,Helvetica,sans-serif" font-weight="700">AI</text></g><g stroke="#7dfbe6" stroke-width="2" stroke-opacity=".5"><path d="M430 365L515 380M685 380L790 340M520 310L410 135M675 310L760 155M520 450L470 600M680 450L820 560"/></g></svg>